<svg width="744" height="1040" viewBox="0 0 744 1040" fill="none" xmlns="http://www.w3.org/2000/svg">
<rect width="744" height="1040" rx="7" fill="#F2F2F2"/>
<path d="M81.5265 129.288H47.3505C45.8998 132.787 44.6625 135.901 43.6385 138.632C42.6145 141.277 41.7612 143.581 41.0785 145.544C40.4812 147.507 40.0545 149.171 39.7985 150.536C39.5425 151.901 39.4145 153.011 39.4145 153.864C39.4145 156.253 40.1825 157.917 41.7185 158.856C43.2545 159.709 45.8145 160.136 49.3985 160.136V165H18.2945V160.136C20.2572 159.88 21.9212 159.539 23.2865 159.112C24.7372 158.685 25.9745 158.088 26.9985 157.32C28.1078 156.552 29.0465 155.571 29.8145 154.376C30.6678 153.096 31.4785 151.56 32.2465 149.768L65.5265 66.44H71.0305L100.087 138.632C102.049 143.411 103.756 147.251 105.207 150.152C106.657 152.968 108.065 155.101 109.431 156.552C110.796 158.003 112.247 158.941 113.783 159.368C115.404 159.795 117.324 160.008 119.543 160.008V165H77.8145V160.008C82.3372 160.008 85.4518 159.581 87.1585 158.728C88.8652 157.875 89.7185 156.467 89.7185 154.504C89.7185 153.651 89.6758 152.883 89.5905 152.2C89.5052 151.432 89.3345 150.621 89.0785 149.768C88.9078 148.915 88.6092 147.976 88.1825 146.952C87.8412 145.843 87.3718 144.563 86.7745 143.112L81.5265 129.288ZM49.9105 122.888H79.0945L64.8865 85.128L49.9105 122.888Z" fill="#FF0000"/>
<path d="M651.473 910.712H685.649C687.1 907.213 688.337 904.099 689.361 901.368C690.385 898.723 691.239 896.419 691.921 894.456C692.519 892.493 692.945 890.829 693.201 889.464C693.457 888.099 693.585 886.989 693.585 886.136C693.585 883.747 692.817 882.083 691.281 881.144C689.745 880.291 687.185 879.864 683.601 879.864V875H714.706V879.864C712.743 880.12 711.079 880.461 709.714 880.888C708.263 881.315 707.025 881.912 706.001 882.68C704.892 883.448 703.953 884.429 703.185 885.624C702.332 886.904 701.521 888.44 700.753 890.232L667.473 973.56H661.969L632.913 901.368C630.951 896.589 629.244 892.749 627.793 889.848C626.343 887.032 624.935 884.899 623.569 883.448C622.204 881.997 620.753 881.059 619.217 880.632C617.596 880.205 615.676 879.992 613.457 879.992V875H655.185V879.992C650.663 879.992 647.548 880.419 645.841 881.272C644.135 882.125 643.281 883.533 643.281 885.496C643.281 886.349 643.324 887.117 643.41 887.8C643.495 888.568 643.665 889.379 643.921 890.232C644.092 891.085 644.391 892.024 644.817 893.048C645.159 894.157 645.628 895.437 646.225 896.888L651.473 910.712ZM683.089 917.112H653.905L668.113 954.872L683.089 917.112Z" fill="#FF0000"/>
<path d="M202.226 236L246.57 192.047L249.285 187.969L251.095 182.984L252 178V172.109L251.548 168.938L250.19 165.312L248.38 162.141L246.57 159.422L244.308 156.25L241.593 153.984L237.52 151.719L232.543 149.906L227.113 149H222.136L215.801 150.812L209.014 155.344L202.226 162.141L195.439 155.344L186.842 150.812L180.959 149H175.529L170.552 149.906L166.027 151.719L162.86 153.984L160.145 156.25L156.977 159.422L155.167 162.141L153.81 165.312L152.452 168.938L152 172.109V178L152.905 182.984L155.167 187.969L158.335 192.047L202.226 236Z" fill="#FF0000" stroke="#FF0000"/>
<path d="M69.1357 239L95.7421 212.729L97.371 210.292L98.457 207.312L99 204.333V200.813L98.7285 198.917L97.914 196.75L96.8281 194.854L95.7421 193.229L94.3846 191.333L92.7557 189.979L90.3122 188.625L87.3258 187.542L84.0679 187H81.0815L77.2805 188.083L73.2081 190.792L69.1357 194.854L65.0634 190.792L59.905 188.083L56.3756 187H53.1176L50.1312 187.542L47.4163 188.625L45.5158 189.979L43.8869 191.333L41.9864 193.229L40.9005 194.854L40.086 196.75L39.2715 198.917L39 200.813V204.333L39.543 207.312L40.9005 210.292L42.8009 212.729L69.1357 239Z" fill="#FF0000" stroke="#FF0000"/>
<path d="M664.864 801L638.258 827.271L636.629 829.708L635.543 832.688L635 835.667V839.187L635.271 841.083L636.086 843.25L637.172 845.146L638.258 846.771L639.615 848.667L641.244 850.021L643.688 851.375L646.674 852.458L649.932 853H652.919L656.719 851.917L660.792 849.208L664.864 845.146L668.937 849.208L674.095 851.917L677.624 853H680.882L683.869 852.458L686.584 851.375L688.484 850.021L690.113 848.667L692.014 846.771L693.1 845.146L693.914 843.25L694.729 841.083L695 839.187V835.667L694.457 832.688L693.1 829.708L691.199 827.271L664.864 801Z" fill="#FF0000" stroke="#FF0000"/>
<path d="M530.774 804L486.43 847.953L483.715 852.031L481.905 857.016L481 862V867.891L481.452 871.062L482.81 874.688L484.62 877.859L486.43 880.578L488.692 883.75L491.407 886.016L495.48 888.281L500.457 890.094L505.887 891H510.864L517.199 889.188L523.986 884.656L530.774 877.859L537.561 884.656L546.158 889.188L552.041 891H557.471L562.448 890.094L566.973 888.281L570.14 886.016L572.855 883.75L576.023 880.578L577.833 877.859L579.19 874.688L580.548 871.062L581 867.891V862L580.095 857.016L577.833 852.031L574.665 847.953L530.774 804Z" fill="#FF0000" stroke="#FF0000"/>
<path d="M372.435 420.435L375.912 415.652L378.52 407.391L380.258 400L381.562 392.609L382.432 384.348L385.474 390.87L387.213 397.391L389.386 406.087L390.69 414.783L391.559 423.478L400.687 416.522L405.468 411.304L409.815 405.217L414.162 398.696L418.073 390.87L421.116 381.739L423.724 364.348L424.593 343.043L422.855 324.783L418.508 304.348L411.554 285.217L403.73 267.391L389.821 243.913L381.128 231.304L372 220L362.872 231.304L354.614 243.913L342.009 267.391L334.62 285.217L328.535 304.348L324.623 324.783L322.884 343.043L323.753 364.348L326.796 381.739L329.838 391.304L333.316 398.696L336.793 405.217L341.139 411.304L345.921 416.522L354.614 423.478L355.483 414.348L356.787 406.087L358.526 397.391L360.699 390.87L363.742 384.348L364.611 392.609L365.48 400L367.219 407.391L369.392 415.652L372.435 420.435Z" fill="#A6E1E7"/>
<path d="M408.076 433.043L410.25 434.348L431.982 393.043L441.979 378.261L456.758 362.174L477.621 345.217L482.402 337.826L487.618 326.087L489.357 315.652L487.618 293.913L482.402 248.261L445.457 282.174L436.764 291.304L429.374 302.174L425.897 310.87V313.478L426.332 315.652L426.767 318.696L428.505 328.696L429.374 336.522V365.217L428.505 373.478L426.767 383.478L424.593 394.348L420.681 406.087L415.031 419.13L408.076 433.043Z" fill="#A6E1E7"/>
<path d="M431.982 440.87L431.113 433.478V422.174L432.852 411.304L436.764 399.13L442.849 388.696L450.238 378.261L460.235 366.957L475.013 352.609L487.618 343.913L498.919 336.522L515.871 327.826L535.865 319.13L553.251 313.478L565.856 309.565L579.765 306.522L590.631 304.348V309.565L589.762 315.217L588.023 323.478L584.981 336.522L581.938 346.087L577.157 359.565L572.811 370.435L568.899 380.435L563.248 390.87L557.163 402.609L551.947 410.87L545.427 420L538.473 428.696L529.345 437.826L520.217 446.087L511.524 453.043L501.962 459.13L491.095 464.348L481.968 468.261L473.709 470.435H466.755L458.931 469.565L458.496 468.261L466.32 464.348L473.709 458.696L480.229 452.174L481.968 448.696L474.144 452.174L466.755 453.043L458.931 453.478H451.107L448.065 453.043V451.739L456.758 442.609L461.974 435.217L465.451 430L468.059 423.913L461.539 426.087L455.888 430L451.107 433.043L444.587 436.522L438.502 439.565L434.156 441.739L431.982 440.87Z" fill="#A6E1E7"/>
<path d="M337.662 435.217L340.705 430L334.62 420.87L327.665 405.217L322.015 390.87L318.537 377.391L315.495 361.304L315.06 345.652L315.93 328.261L317.668 317.391L317.233 310.87L314.191 302.609L308.106 293.043L300.717 285.217L291.589 276.957L280.288 266.957L270.725 257.826L264.64 253.043L259.424 248.261L258.555 259.13L256.816 273.043L255.512 286.957L254.643 297.826L253.774 310.435V321.304L255.078 328.261L258.555 334.783L262.902 341.739L265.51 345.652L271.16 349.565L276.811 354.348L283.33 360.435L290.285 366.957L296.37 373.913L302.455 381.739L308.975 393.478L313.322 402.174L318.103 411.739L322.015 418.696L327.231 425.217L331.577 429.565L337.662 435.217Z" fill="#A6E1E7"/>
<path d="M262.467 448.261L268.987 456.522L278.984 464.783L286.808 469.565L282.896 470.87L269.856 470.435L254.849 464.783L236.822 455.217L221.609 442.174L208.57 429.565L195.53 412.609L185.533 396.957L176.405 379.13L170.755 365.217L164.235 346.957L159.888 332.609L156.411 319.13L153.803 309.565L152.934 303.913L167.278 306.087L195.53 313.913L214.22 320.87L238.996 332.174L256.816 343.043L267.683 352.609L282.461 366.087L294.631 380L301.151 389.565L306.367 398.261L310.279 408.696L313.322 420.87V436.522V441.739L305.498 438.696L293.327 432.609L283.33 427.826L276.376 425.217L282.026 435.217C284.634 438.261 289.85 444.435 289.85 444.783C289.85 445.217 298.109 452.609 298.109 453.043C298.109 453.391 291.444 454.058 288.112 454.348L277.68 453.043L268.987 449.565L262.467 448.261Z" fill="#A6E1E7"/>
<path d="M225.521 455.217C225.174 454.87 218.132 448.985 214.655 446.087L203.789 435.217L193.357 423.043L186.402 413.043L182.056 405.217L177.709 401.304L170.32 398.261L161.627 396.957L151.63 396.522L134.678 397.826L119.9 399.13L105.557 400L94.2555 400.87L100.775 408.696L107.295 416.522L113.815 423.913L120.769 432.609L128.593 442.174L135.982 449.13L145.11 456.522L152.065 460.87L154.673 462.174L157.28 461.304L160.758 459.565L166.843 457.826L172.059 456.522L179.448 454.348L185.098 453.478H193.791H203.789H211.612L217.698 454.348L225.521 455.217Z" fill="#A6E1E7"/>
<path d="M241.169 569.13L228.129 571.304H218.132H205.093L194.661 570L179.883 566.957L170.755 563.913L162.496 561.304L155.542 557.826L148.587 561.304L140.764 566.087L132.07 572.609L124.247 580L115.988 588.261L109.034 594.348L102.949 600.435L96.4288 606.957L94.2555 609.13L105.991 611.304L119.465 614.348L132.505 617.826L143.806 620L151.195 621.739L157.28 622.174H165.104L172.493 621.739L179.883 620L184.664 617.826L188.576 613.478L189.88 610.87L194.661 605.652L198.573 600.87L203.789 595.652L209.004 590.435L215.524 585.217L222.913 580L229.868 575.652L235.518 572.609L241.169 569.13Z" fill="#A6E1E7"/>
<path d="M312.452 600.435L313.756 608.261V619.13L311.583 630.435L307.671 640L301.151 651.304L295.501 658.696L289.85 665.217L282.896 671.739L275.072 678.261L266.379 685.217L257.251 690.435L243.777 697.826L230.737 703.043L215.959 707.826L200.311 712.174L182.49 715.217L168.147 716.957L158.15 717.391H151.195L152.934 708.696L157.715 693.478L162.496 680.435L168.147 665.217L173.797 653.478L179.883 642.609L186.837 631.304L194.661 620.435L205.093 608.261L217.263 596.522L225.521 590.435L235.518 583.478L244.646 578.696L255.512 574.348L264.206 572.174L275.072 571.304H284.2L286.808 573.043L282.461 575.652L277.68 578.696L269.421 585.217L263.771 590.435L261.163 594.348L268.117 591.739L275.072 589.565L282.461 587.826H290.285H295.501L297.239 588.696L295.935 590.435L292.023 594.348L288.112 599.13L284.2 604.348L279.853 611.739L276.376 617.826L283.33 614.348L292.023 610L298.978 606.087L305.932 603.043L312.452 600.435Z" fill="#A6E1E7"/>
<path d="M391.559 618.261L402.861 627.391L409.815 636.522L415.465 646.087L419.812 656.957L422.855 667.826L424.159 678.696L424.593 692.174L424.159 702.609L422.855 712.609L420.681 726.522L415.9 743.478L411.554 754.783L405.034 769.565L399.818 780L391.125 794.783L382.866 806.956L374.608 817.391L372.435 820L369.392 816.956L362.438 806.956L355.483 795.652L348.963 783.913L342.878 771.304L338.097 759.565L334.62 748.696L331.142 737.391L328.1 726.522L325.927 713.478L324.188 702.609V691.304V681.739L325.057 670.435L327.665 657.826L330.708 648.696L335.054 639.565L341.139 631.304L347.659 624.348L354.614 618.261L355.483 629.565L357.222 640L360.264 650L364.176 657.826L365.046 644.348L366.784 635.652L368.957 628.696L372.435 620.435L376.781 628.696L378.954 635.652L380.258 644.348L381.997 657.826L386.344 650L389.386 639.565L390.69 629.565L391.559 618.261Z" fill="#A6E1E7"/>
<path d="M459.366 572.174L467.624 571.304L478.925 572.174L488.053 573.913L501.092 578.696L510.655 584.348L518.913 589.565L525.868 595.217L532.388 600.87L538.908 606.957L544.558 613.913L552.816 624.783L559.336 633.913L564.987 642.174L571.072 653.043L576.288 664.348L580.2 672.609L583.677 680.435L587.154 690L590.631 701.304L592.805 708.696L594.978 717.826L584.546 718.261L573.68 717.826L559.336 715.652L545.862 712.609L520.652 705.652L504.57 698.261L488.488 690L478.49 683.478L468.928 675.652L460.235 667.826L454.15 661.739L447.195 653.043L440.675 643.478L436.764 635.652L433.286 627.391L431.548 620L430.678 612.609V605.652L431.982 599.13L438.937 602.609L448.934 607.826L459.366 612.609L467.624 617.391L466.755 613.913L461.539 605.652L457.192 600L451.977 593.043L448.065 588.696L456.323 588.261L464.582 588.696L471.971 590L478.056 592.174L483.706 594.783L481.968 590.87L478.49 587.391L474.144 583.478L468.928 579.565L464.582 576.957L459.366 573.913V572.174Z" fill="#A6E1E7"/>
<path d="M497.615 565.217L505.874 567.391L515.436 569.13L528.91 569.565H543.689L554.555 567.826L567.595 564.783L574.549 562.609L581.504 560.435L585.85 558.261H588.023L593.674 560.435L601.498 565.217L608.887 570.435L618.449 577.826L626.708 585.652L632.358 590.87L638.443 597.391L644.963 603.478L651.048 609.565L643.659 610.87L634.966 612.609L625.839 614.348L617.58 616.087L608.452 618.261L601.498 620L594.978 620.87L587.154 621.739H579.765L571.941 620.87L565.856 620L561.075 618.261L556.728 614.348L552.816 610.435L548.47 605.217L543.254 600.435L537.169 594.783L531.953 590.87L525.433 585.652L518.913 580.435L511.959 576.087L506.308 573.043L502.396 569.565L497.615 565.217Z" fill="#A6E1E7"/>
<path d="M247.254 537.826L254.209 541.304L263.771 543.478L274.203 544.348L273.333 547.391L265.944 553.043L257.686 557.826L247.254 561.304L232.041 564.348L214.655 564.783L194.661 563.913L178.144 560.435L163.366 556.087L141.633 547.826L121.204 537.391L105.557 526.957L88.1703 513.478L79.4772 506.087L76 502.609L84.2584 497.391L96.8634 490L112.511 481.304L125.551 475.217L137.721 470.87L153.803 466.522L166.843 463.913L186.402 462.174L205.962 463.043L227.695 466.522L239.865 470.87L251.601 476.087L258.12 480L267.683 487.391L274.203 494.348L265.51 495.217L256.382 496.957L248.123 499.13L245.515 501.304L257.686 503.478L267.248 506.957L274.203 512.174L265.51 513.478L255.512 514.783L248.993 516.522L241.604 519.565L249.862 522.174L260.294 524.348L269.421 525.652L275.941 526.957L271.595 530.87L263.771 533.913L255.512 536.087L247.254 537.826Z" fill="#A6E1E7"/>
<path d="M344.617 608.261L336.358 606.522L325.492 624.783L313.756 645.217L303.325 660.435L293.762 670.435L283.33 680L273.333 687.391L265.075 692.174L260.728 694.783L258.99 697.826L257.251 702.609L255.512 708.696L253.774 715.217L253.339 729.565L254.643 743.913L255.947 756.956L257.251 768.261L258.12 778.261L258.99 791.739L269.856 781.739L283.33 769.13L293.762 758.696L304.194 748.696L310.714 740.435L314.626 733.043L317.233 726.522V720L315.495 711.304L314.626 703.043V693.478L315.495 681.739L317.233 672.174L319.407 662.609L322.449 651.304L325.492 643.478L328.535 635.652L334.185 624.348L338.966 616.957L344.617 608.261Z" fill="#A6E1E7"/>
<path d="M406.772 608.261C407.12 607.913 409.525 606.957 410.684 606.522L419.812 621.739L428.94 636.087L440.675 653.913L448.499 662.609L461.539 675.652C463.712 677.391 468.146 680.956 468.493 681.304C468.841 681.652 472.985 684.348 475.013 685.652L480.664 692.609L485.445 701.739L488.488 709.565L490.226 720L489.357 730L487.618 746.087L486.314 758.261L484.576 776.522L483.272 792.174L475.883 784.783L467.189 776.956L459.366 769.565L451.107 761.304L443.283 753.043L437.198 746.087L431.548 736.956L427.636 728.261L425.897 724.348V720L426.767 715.652L428.505 709.565L429.374 701.739V693.913V680.87L428.94 672.174L427.636 661.739L425.897 653.043L422.855 644.348L419.812 635.652L416.769 627.391L412.423 617.391L406.772 608.261Z" fill="#A6E1E7"/>
<path d="M471.536 494.348L477.186 488.261L486.314 480.87L498.919 474.348L508.916 470L521.956 466.522L536.3 464.348L548.47 463.478L566.725 464.348L585.85 466.522L604.54 470.87L617.58 475.652L631.489 481.739L645.398 488.696L657.134 495.217L668 503.043L661.915 510L653.656 516.957L641.051 526.087L630.185 532.609L617.58 540.435L603.671 546.957L593.239 551.304L577.592 556.522L561.075 560.87L539.342 563.913H517.609L499.789 561.304L484.576 556.087L473.275 548.696L469.363 544.348H476.752L485.01 543.478L493.703 540.435L497.615 537.391L485.445 535.652L478.49 532.174L471.101 529.13L469.797 527.391L473.709 526.087L491.095 523.478L500.658 520.87L503.7 519.565L498.05 516.522L488.053 514.348L476.317 513.043H469.363L474.144 508.261L483.272 504.783L491.53 503.043L499.789 501.739L497.181 499.565L488.053 496.522L480.664 495.217L471.536 494.348Z" fill="#A6E1E7"/>
<path d="M515.001 458.261L522.825 451.739L533.257 442.609L541.95 433.043L549.339 423.913L555.424 414.783L560.206 406.957L561.51 403.478L565.856 401.739L572.811 399.13L581.504 397.826H594.978L609.756 398.261L630.185 399.565L642.79 400.87L649.31 401.304L644.094 407.826L634.966 418.696L625.839 429.13L618.015 438.261L609.756 446.957L601.932 453.913L594.543 459.13L590.631 461.304H587.154L583.242 460.87L577.157 459.13L573.245 458.261L567.595 456.957L561.51 456.522L553.251 455.652H544.558H538.908L530.649 456.522L525.868 456.957L520.217 457.826L515.001 458.261Z" fill="#A6E1E7"/>
<path d="M404.599 448.696L388.517 443.913L380.693 442.609L371.565 442.174L362.872 442.609L355.048 443.913L341.574 448.696L327.231 455.652L315.06 465.652L305.932 476.087L298.109 489.565L294.197 500.435L292.458 509.565V520.87L293.327 533.913L295.935 543.478L299.413 553.043L305.063 563.043L312.452 572.174L322.015 581.304L335.054 589.565L348.529 595.217L359.395 597.826L371.565 598.696L384.17 597.826L396.341 595.217L410.684 589.565L423.289 581.304L432.852 572.174L439.806 563.043L445.457 553.043L449.369 543.478L451.542 533.913L452.411 520.87V509.565L450.673 500.435L446.326 489.565L438.937 476.087L429.809 465.652L418.073 455.652L404.599 448.696Z" fill="#E2F8F0"/>
<path d="M372.435 420.435L375.912 415.652L378.52 407.391L380.258 400L381.562 392.609L382.432 384.348L385.474 390.87L387.213 397.391L389.386 406.087L390.69 414.783L391.559 423.478L400.687 416.522L405.468 411.304L409.815 405.217L414.162 398.696L418.073 390.87L421.116 381.739L423.724 364.348L424.593 343.043L422.855 324.783L418.508 304.348L411.554 285.217L403.73 267.391L389.821 243.913L381.128 231.304L372 220L362.872 231.304L354.614 243.913L342.009 267.391L334.62 285.217L328.535 304.348L324.623 324.783L322.884 343.043L323.753 364.348L326.796 381.739L329.838 391.304L333.316 398.696L336.793 405.217L341.139 411.304L345.921 416.522L354.614 423.478L355.483 414.348L356.787 406.087L358.526 397.391L360.699 390.87L363.742 384.348L364.611 392.609L365.48 400L367.219 407.391L369.392 415.652L372.435 420.435Z" stroke="black" stroke-width="4"/>
<path d="M408.076 433.043L410.25 434.348L431.982 393.043L441.979 378.261L456.758 362.174L477.621 345.217L482.402 337.826L487.618 326.087L489.357 315.652L487.618 293.913L482.402 248.261L445.457 282.174L436.764 291.304L429.374 302.174L425.897 310.87V313.478L426.332 315.652L426.767 318.696L428.505 328.696L429.374 336.522V365.217L428.505 373.478L426.767 383.478L424.593 394.348L420.681 406.087L415.031 419.13L408.076 433.043Z" stroke="black" stroke-width="4"/>
<path d="M431.982 440.87L431.113 433.478V422.174L432.852 411.304L436.764 399.13L442.849 388.696L450.238 378.261L460.235 366.957L475.013 352.609L487.618 343.913L498.919 336.522L515.871 327.826L535.865 319.13L553.251 313.478L565.856 309.565L579.765 306.522L590.631 304.348V309.565L589.762 315.217L588.023 323.478L584.981 336.522L581.938 346.087L577.157 359.565L572.811 370.435L568.899 380.435L563.248 390.87L557.163 402.609L551.947 410.87L545.427 420L538.473 428.696L529.345 437.826L520.217 446.087L511.524 453.043L501.962 459.13L491.095 464.348L481.968 468.261L473.709 470.435H466.755L458.931 469.565L458.496 468.261L466.32 464.348L473.709 458.696L480.229 452.174L481.968 448.696L474.144 452.174L466.755 453.043L458.931 453.478H451.107L448.065 453.043V451.739L456.758 442.609L461.974 435.217L465.451 430L468.059 423.913L461.539 426.087L455.888 430L451.107 433.043L444.587 436.522L438.502 439.565L434.156 441.739L431.982 440.87Z" stroke="black" stroke-width="4"/>
<path d="M337.662 435.217L340.705 430L334.62 420.87L327.665 405.217L322.015 390.87L318.537 377.391L315.495 361.304L315.06 345.652L315.93 328.261L317.668 317.391L317.233 310.87L314.191 302.609L308.106 293.043L300.717 285.217L291.589 276.957L280.288 266.957L270.725 257.826L264.64 253.043L259.424 248.261L258.555 259.13L256.816 273.043L255.512 286.957L254.643 297.826L253.774 310.435V321.304L255.078 328.261L258.555 334.783L262.902 341.739L265.51 345.652L271.16 349.565L276.811 354.348L283.33 360.435L290.285 366.957L296.37 373.913L302.455 381.739L308.975 393.478L313.322 402.174L318.103 411.739L322.015 418.696L327.231 425.217L331.577 429.565L337.662 435.217Z" stroke="black" stroke-width="4"/>
<path d="M262.467 448.261L268.987 456.522L278.984 464.783L286.808 469.565L282.896 470.87L269.856 470.435L254.849 464.783L236.822 455.217L221.609 442.174L208.57 429.565L195.53 412.609L185.533 396.957L176.405 379.13L170.755 365.217L164.235 346.957L159.888 332.609L156.411 319.13L153.803 309.565L152.934 303.913L167.278 306.087L195.53 313.913L214.22 320.87L238.996 332.174L256.816 343.043L267.683 352.609L282.461 366.087L294.631 380L301.151 389.565L306.367 398.261L310.279 408.696L313.322 420.87V436.522V441.739L305.498 438.696L293.327 432.609L283.33 427.826L276.376 425.217L282.026 435.217C284.634 438.261 289.85 444.435 289.85 444.783C289.85 445.217 298.109 452.609 298.109 453.043C298.109 453.391 291.444 454.058 288.112 454.348L277.68 453.043L268.987 449.565L262.467 448.261Z" stroke="black" stroke-width="4"/>
<path d="M225.521 455.217C225.174 454.87 218.132 448.985 214.655 446.087L203.789 435.217L193.357 423.043L186.402 413.043L182.056 405.217L177.709 401.304L170.32 398.261L161.627 396.957L151.63 396.522L134.678 397.826L119.9 399.13L105.557 400L94.2555 400.87L100.775 408.696L107.295 416.522L113.815 423.913L120.769 432.609L128.593 442.174L135.982 449.13L145.11 456.522L152.065 460.87L154.673 462.174L157.28 461.304L160.758 459.565L166.843 457.826L172.059 456.522L179.448 454.348L185.098 453.478H193.791H203.789H211.612L217.698 454.348L225.521 455.217Z" stroke="black" stroke-width="4"/>
<path d="M241.169 569.13L228.129 571.304H218.132H205.093L194.661 570L179.883 566.957L170.755 563.913L162.496 561.304L155.542 557.826L148.587 561.304L140.764 566.087L132.07 572.609L124.247 580L115.988 588.261L109.034 594.348L102.949 600.435L96.4288 606.957L94.2555 609.13L105.991 611.304L119.465 614.348L132.505 617.826L143.806 620L151.195 621.739L157.28 622.174H165.104L172.493 621.739L179.883 620L184.664 617.826L188.576 613.478L189.88 610.87L194.661 605.652L198.573 600.87L203.789 595.652L209.004 590.435L215.524 585.217L222.913 580L229.868 575.652L235.518 572.609L241.169 569.13Z" stroke="black" stroke-width="4"/>
<path d="M312.452 600.435L313.756 608.261V619.13L311.583 630.435L307.671 640L301.151 651.304L295.501 658.696L289.85 665.217L282.896 671.739L275.072 678.261L266.379 685.217L257.251 690.435L243.777 697.826L230.737 703.043L215.959 707.826L200.311 712.174L182.49 715.217L168.147 716.957L158.15 717.391H151.195L152.934 708.696L157.715 693.478L162.496 680.435L168.147 665.217L173.797 653.478L179.883 642.609L186.837 631.304L194.661 620.435L205.093 608.261L217.263 596.522L225.521 590.435L235.518 583.478L244.646 578.696L255.512 574.348L264.206 572.174L275.072 571.304H284.2L286.808 573.043L282.461 575.652L277.68 578.696L269.421 585.217L263.771 590.435L261.163 594.348L268.117 591.739L275.072 589.565L282.461 587.826H290.285H295.501L297.239 588.696L295.935 590.435L292.023 594.348L288.112 599.13L284.2 604.348L279.853 611.739L276.376 617.826L283.33 614.348L292.023 610L298.978 606.087L305.932 603.043L312.452 600.435Z" stroke="black" stroke-width="4"/>
<path d="M391.559 618.261L402.861 627.391L409.815 636.522L415.465 646.087L419.812 656.957L422.855 667.826L424.159 678.696L424.593 692.174L424.159 702.609L422.855 712.609L420.681 726.522L415.9 743.478L411.554 754.783L405.034 769.565L399.818 780L391.125 794.783L382.866 806.956L374.608 817.391L372.435 820L369.392 816.956L362.438 806.956L355.483 795.652L348.963 783.913L342.878 771.304L338.097 759.565L334.62 748.696L331.142 737.391L328.1 726.522L325.927 713.478L324.188 702.609V691.304V681.739L325.057 670.435L327.665 657.826L330.708 648.696L335.054 639.565L341.139 631.304L347.659 624.348L354.614 618.261L355.483 629.565L357.222 640L360.264 650L364.176 657.826L365.046 644.348L366.784 635.652L368.957 628.696L372.435 620.435L376.781 628.696L378.954 635.652L380.258 644.348L381.997 657.826L386.344 650L389.386 639.565L390.69 629.565L391.559 618.261Z" stroke="black" stroke-width="4"/>
<path d="M459.366 572.174L467.624 571.304L478.925 572.174L488.053 573.913L501.092 578.696L510.655 584.348L518.913 589.565L525.868 595.217L532.388 600.87L538.908 606.957L544.558 613.913L552.816 624.783L559.336 633.913L564.987 642.174L571.072 653.043L576.288 664.348L580.2 672.609L583.677 680.435L587.154 690L590.631 701.304L592.805 708.696L594.978 717.826L584.546 718.261L573.68 717.826L559.336 715.652L545.862 712.609L520.652 705.652L504.57 698.261L488.488 690L478.49 683.478L468.928 675.652L460.235 667.826L454.15 661.739L447.195 653.043L440.675 643.478L436.764 635.652L433.286 627.391L431.548 620L430.678 612.609V605.652L431.982 599.13L438.937 602.609L448.934 607.826L459.366 612.609L467.624 617.391L466.755 613.913L461.539 605.652L457.192 600L451.977 593.043L448.065 588.696L456.323 588.261L464.582 588.696L471.971 590L478.056 592.174L483.706 594.783L481.968 590.87L478.49 587.391L474.144 583.478L468.928 579.565L464.582 576.957L459.366 573.913V572.174Z" stroke="black" stroke-width="4"/>
<path d="M497.615 565.217L505.874 567.391L515.436 569.13L528.91 569.565H543.689L554.555 567.826L567.595 564.783L574.549 562.609L581.504 560.435L585.85 558.261H588.023L593.674 560.435L601.498 565.217L608.887 570.435L618.449 577.826L626.708 585.652L632.358 590.87L638.443 597.391L644.963 603.478L651.048 609.565L643.659 610.87L634.966 612.609L625.839 614.348L617.58 616.087L608.452 618.261L601.498 620L594.978 620.87L587.154 621.739H579.765L571.941 620.87L565.856 620L561.075 618.261L556.728 614.348L552.816 610.435L548.47 605.217L543.254 600.435L537.169 594.783L531.953 590.87L525.433 585.652L518.913 580.435L511.959 576.087L506.308 573.043L502.396 569.565L497.615 565.217Z" stroke="black" stroke-width="4"/>
<path d="M247.254 537.826L254.209 541.304L263.771 543.478L274.203 544.348L273.333 547.391L265.944 553.043L257.686 557.826L247.254 561.304L232.041 564.348L214.655 564.783L194.661 563.913L178.144 560.435L163.366 556.087L141.633 547.826L121.204 537.391L105.557 526.957L88.1703 513.478L79.4772 506.087L76 502.609L84.2584 497.391L96.8634 490L112.511 481.304L125.551 475.217L137.721 470.87L153.803 466.522L166.843 463.913L186.402 462.174L205.962 463.043L227.695 466.522L239.865 470.87L251.601 476.087L258.12 480L267.683 487.391L274.203 494.348L265.51 495.217L256.382 496.957L248.123 499.13L245.515 501.304L257.686 503.478L267.248 506.957L274.203 512.174L265.51 513.478L255.512 514.783L248.993 516.522L241.604 519.565L249.862 522.174L260.294 524.348L269.421 525.652L275.941 526.957L271.595 530.87L263.771 533.913L255.512 536.087L247.254 537.826Z" stroke="black" stroke-width="4"/>
<path d="M344.617 608.261L336.358 606.522L325.492 624.783L313.756 645.217L303.325 660.435L293.762 670.435L283.33 680L273.333 687.391L265.075 692.174L260.728 694.783L258.99 697.826L257.251 702.609L255.512 708.696L253.774 715.217L253.339 729.565L254.643 743.913L255.947 756.956L257.251 768.261L258.12 778.261L258.99 791.739L269.856 781.739L283.33 769.13L293.762 758.696L304.194 748.696L310.714 740.435L314.626 733.043L317.233 726.522V720L315.495 711.304L314.626 703.043V693.478L315.495 681.739L317.233 672.174L319.407 662.609L322.449 651.304L325.492 643.478L328.535 635.652L334.185 624.348L338.966 616.957L344.617 608.261Z" stroke="black" stroke-width="4"/>
<path d="M406.772 608.261C407.12 607.913 409.525 606.957 410.684 606.522L419.812 621.739L428.94 636.087L440.675 653.913L448.499 662.609L461.539 675.652C463.712 677.391 468.146 680.956 468.493 681.304C468.841 681.652 472.985 684.348 475.013 685.652L480.664 692.609L485.445 701.739L488.488 709.565L490.226 720L489.357 730L487.618 746.087L486.314 758.261L484.576 776.522L483.272 792.174L475.883 784.783L467.189 776.956L459.366 769.565L451.107 761.304L443.283 753.043L437.198 746.087L431.548 736.956L427.636 728.261L425.897 724.348V720L426.767 715.652L428.505 709.565L429.374 701.739V693.913V680.87L428.94 672.174L427.636 661.739L425.897 653.043L422.855 644.348L419.812 635.652L416.769 627.391L412.423 617.391L406.772 608.261Z" stroke="black" stroke-width="4"/>
<path d="M471.536 494.348L477.186 488.261L486.314 480.87L498.919 474.348L508.916 470L521.956 466.522L536.3 464.348L548.47 463.478L566.725 464.348L585.85 466.522L604.54 470.87L617.58 475.652L631.489 481.739L645.398 488.696L657.134 495.217L668 503.043L661.915 510L653.656 516.957L641.051 526.087L630.185 532.609L617.58 540.435L603.671 546.957L593.239 551.304L577.592 556.522L561.075 560.87L539.342 563.913H517.609L499.789 561.304L484.576 556.087L473.275 548.696L469.363 544.348H476.752L485.01 543.478L493.703 540.435L497.615 537.391L485.445 535.652L478.49 532.174L471.101 529.13L469.797 527.391L473.709 526.087L491.095 523.478L500.658 520.87L503.7 519.565L498.05 516.522L488.053 514.348L476.317 513.043H469.363L474.144 508.261L483.272 504.783L491.53 503.043L499.789 501.739L497.181 499.565L488.053 496.522L480.664 495.217L471.536 494.348Z" stroke="black" stroke-width="4"/>
<path d="M515.001 458.261L522.825 451.739L533.257 442.609L541.95 433.043L549.339 423.913L555.424 414.783L560.206 406.957L561.51 403.478L565.856 401.739L572.811 399.13L581.504 397.826H594.978L609.756 398.261L630.185 399.565L642.79 400.87L649.31 401.304L644.094 407.826L634.966 418.696L625.839 429.13L618.015 438.261L609.756 446.957L601.932 453.913L594.543 459.13L590.631 461.304H587.154L583.242 460.87L577.157 459.13L573.245 458.261L567.595 456.957L561.51 456.522L553.251 455.652H544.558H538.908L530.649 456.522L525.868 456.957L520.217 457.826L515.001 458.261Z" stroke="black" stroke-width="4"/>
<path d="M404.599 448.696L388.517 443.913L380.693 442.609L371.565 442.174L362.872 442.609L355.048 443.913L341.574 448.696L327.231 455.652L315.06 465.652L305.932 476.087L298.109 489.565L294.197 500.435L292.458 509.565V520.87L293.327 533.913L295.935 543.478L299.413 553.043L305.063 563.043L312.452 572.174L322.015 581.304L335.054 589.565L348.529 595.217L359.395 597.826L371.565 598.696L384.17 597.826L396.341 595.217L410.684 589.565L423.289 581.304L432.852 572.174L439.806 563.043L445.457 553.043L449.369 543.478L451.542 533.913L452.411 520.87V509.565L450.673 500.435L446.326 489.565L438.937 476.087L429.809 465.652L418.073 455.652L404.599 448.696Z" stroke="black" stroke-width="4"/>
</svg>
