<svg width="200" height="300" viewBox="0 0 200 300" fill="none" xmlns="http://www.w3.org/2000/svg">
<rect x="0.5" y="0.5" width="199" height="299" rx="7.5" fill="#FDFDFD" stroke="black"/>
<path d="M61.8812 62.7438C63.7559 57.9001 61.3344 52.4705 56.4915 50.6346C51.6485 48.7987 46.2197 51.1815 44.384 56.0252L31.6908 89.0715C28.6054 97.1573 30.5191 106.298 36.6509 112.391L59.0692 134.813L27.668 124.344C26.7307 124.032 25.9886 123.29 25.6761 122.352L18.2945 100.165C16.6542 95.2433 11.3425 92.5871 6.42146 94.2277C1.50038 95.8683 -1.15544 101.181 0.484923 106.102L7.86654 128.29C10.0537 134.813 15.17 139.93 21.6924 142.117L45.3604 150.008L21.7315 157.898C15.2091 160.086 10.0927 165.203 7.90559 171.726L0.484923 193.913C-1.15544 198.835 1.50038 204.148 6.42146 205.788C11.3425 207.429 16.6542 204.773 18.2945 199.851L25.6761 177.664C25.9886 176.726 26.7307 175.984 27.668 175.672L59.0692 165.203L36.6119 187.625C30.5191 193.757 28.5663 202.898 31.6908 210.944L44.384 243.991C46.2587 248.834 51.6485 251.217 56.4915 249.381C61.3344 247.545 63.7168 242.116 61.8812 237.272L49.1879 204.226C48.7583 203.054 49.0317 201.765 49.891 200.906L62.5061 188.25C62.8967 208.601 79.5346 225.007 100 225.007C120.465 225.007 137.103 208.64 137.494 188.25L150.109 200.867C150.968 201.726 151.242 203.054 150.812 204.187L138.119 237.233C136.244 242.077 138.666 247.506 143.509 249.342C148.352 251.178 153.78 248.795 155.616 243.952L168.309 210.944C171.395 202.859 169.481 193.718 163.349 187.625L140.931 165.203L172.332 175.672C173.269 175.984 174.011 176.726 174.324 177.664L181.705 199.851C183.346 204.773 188.657 207.429 193.579 205.788C198.5 204.148 201.155 198.835 199.515 193.913L192.133 171.726C189.946 165.203 184.83 160.086 178.308 157.898L154.64 150.008L178.269 142.117C184.791 139.93 189.907 134.813 192.094 128.29L199.476 106.102C201.116 101.181 198.461 95.8683 193.539 94.2277C188.618 92.5871 183.307 95.2433 181.666 100.165L174.285 122.352C173.972 123.29 173.23 124.032 172.293 124.344L140.892 134.813L163.31 112.391C169.403 106.298 171.356 97.1573 168.27 89.0715L155.616 56.0252C153.741 51.1815 148.352 48.7597 143.509 50.6346C138.666 52.5096 136.283 57.9001 138.119 62.7438L150.812 95.7901C151.242 96.962 150.968 98.251 150.109 99.1104L131.245 118.016V112.509C131.245 100.087 123.98 89.3449 113.474 84.306C109.92 82.5872 106.249 85.595 106.249 89.5402V93.7589C106.249 97.1964 103.437 100.009 100 100.009C96.5631 100.009 93.751 97.1964 93.751 93.7589V89.5402C93.751 85.595 90.0797 82.6263 86.5256 84.306C76.0195 89.3449 68.7551 100.087 68.7551 112.509V118.016L49.891 99.1495C49.0317 98.2901 48.7583 96.962 49.1879 95.8292L61.8812 62.7829V62.7438Z" fill="black"/>
<path d="M99.7812 142.688C97.6562 142.146 95.5938 141.875 93.5938 141.875C88.6771 141.875 84.1979 143.542 80.1562 146.875C80.1771 146.667 80.1042 146.125 79.9375 145.25C79.7917 144.354 79.7396 143.802 79.7812 143.594C85.2604 139.094 91.2188 135.573 97.6562 133.031C106.073 135.531 113.812 138.969 120.875 143.344C120.417 144.094 119.844 144.75 119.156 145.312C118.469 145.875 117.896 146.521 117.438 147.25C117.292 147.646 117.219 148.208 117.219 148.938V150.625L117.438 167.375C117.5 168.729 117.75 169.573 118.188 169.906L121.344 172.5L115.844 180.031L108.688 173.969C109.146 170.698 109.375 166.417 109.375 161.125H97.6875C96.8958 168.5 94.6354 174.75 90.9062 179.875C87.1979 185 83.8542 189.01 80.875 191.906C80 191.281 79.2083 190.76 78.5 190.344C80.9167 187.823 82.7188 184.938 83.9062 181.688C85.1146 178.438 86.1458 175.01 87 171.406C87.8542 167.781 88.2812 164.24 88.2812 160.781C88.2812 157.302 87.5208 154.042 86 151C91.0625 148.479 95.6562 145.708 99.7812 142.688ZM109.25 153.781C109.208 151.302 109.188 149.781 109.188 149.219C109.188 148.635 109.198 147.979 109.219 147.25C107.156 145.792 104.99 144.594 102.719 143.656C101.24 144.76 100.115 146.031 99.3438 147.469C98.5729 148.885 98.1146 150.99 97.9688 153.781H109.25Z" fill="#FDFDFD"/>
</svg>
