<svg width="744" height="1040" viewBox="0 0 744 1040" fill="none" xmlns="http://www.w3.org/2000/svg">
<g clip-path="url(#clip0_2010_65)">
<rect width="744" height="1040" rx="7" fill="#F2F2F2"/>
<path d="M519.5 780L372 976.667L224.499 780L372 583.333L519.5 780Z" fill="#C97C63" stroke="#444444" stroke-width="4"/>
<path d="M689.5 520L542 716.667L394.499 520L542 323.333L689.5 520Z" fill="#A6E1E7" stroke="#444444" stroke-width="4"/>
<path d="M689.5 0L542 196.667L394.499 0L542 -196.667L689.5 0Z" fill="#A6E1E7" stroke="#444444" stroke-width="4"/>
<line x1="433" y1="52" x2="651" y2="52" stroke="#444444" stroke-width="4"/>
<path d="M349.5 520L202 716.667L54.499 520L202 323.333L349.5 520Z" fill="#A6E1E7" stroke="#444444" stroke-width="4"/>
<path d="M349.5 0L202 196.667L54.499 0L202 -196.667L349.5 0Z" fill="#A6E1E7" stroke="#444444" stroke-width="4"/>
<path d="M689.5 1040L542 1236.67L394.499 1040L542 843.333L689.5 1040Z" fill="#A6E1E7" stroke="#444444" stroke-width="4"/>
<path d="M349.5 1040L202 1236.67L54.499 1040L202 843.333L349.5 1040Z" fill="#A6E1E7" stroke="#444444" stroke-width="4"/>
<path d="M519.5 260L372 456.667L224.499 260L372 63.333L519.5 260Z" fill="#C97C63" stroke="#444444" stroke-width="4"/>
<path d="M179.5 780L32 976.667L-115.501 780L32 583.333L179.5 780Z" fill="#C97C63" stroke="#444444" stroke-width="4"/>
<path d="M179.5 260L32 456.667L-115.501 260L32 63.333L179.5 260Z" fill="#C97C63" stroke="#444444" stroke-width="4"/>
<path d="M859.5 780L712 976.667L564.499 780L712 583.333L859.5 780Z" fill="#C97C63" stroke="#444444" stroke-width="4"/>
<path d="M859.5 260L712 456.667L564.499 260L712 63.333L859.5 260Z" fill="#C97C63" stroke="#444444" stroke-width="4"/>
<rect y="990" width="744" height="50" rx="7" fill="#F2F2F2"/>
<rect width="744" height="50" rx="7" fill="#F2F2F2"/>
<rect width="50" height="1040" rx="7" fill="#F2F2F2"/>
<rect x="694" width="50" height="1040" rx="7" fill="#F2F2F2"/>
<line x1="93" y1="52" x2="311" y2="52" stroke="#444444" stroke-width="4"/>
<line x1="93" y1="988" x2="311" y2="988" stroke="#444444" stroke-width="4"/>
<line x1="433" y1="988" x2="651" y2="988" stroke="#444444" stroke-width="4"/>
<line x1="692" y1="610" x2="692" y2="950" stroke="#444444" stroke-width="4"/>
<line x1="692" y1="90" x2="692" y2="430" stroke="#444444" stroke-width="4"/>
<line x1="52" y1="610" x2="52" y2="950" stroke="#444444" stroke-width="4"/>
<line x1="52" y1="90" x2="52" y2="430" stroke="#444444" stroke-width="4"/>
</g>
<defs>
<clipPath id="clip0_2010_65">
<rect width="744" height="1040" fill="white"/>
</clipPath>
</defs>
</svg>
