<svg width="744" height="1040" viewBox="0 0 744 1040" fill="none" xmlns="http://www.w3.org/2000/svg">
<rect width="744" height="1040" rx="7" fill="#F2F2F2"/>
<path d="M51.905 144.648C51.905 147.891 52.0757 150.536 52.417 152.584C52.7583 154.632 53.441 156.211 54.465 157.32C55.489 158.429 56.897 159.197 58.689 159.624C60.481 159.965 62.8703 160.136 65.857 160.136V165H24.385V160.136C27.3717 160.136 29.761 159.965 31.553 159.624C33.4303 159.197 34.881 158.472 35.905 157.448C36.929 156.339 37.6117 154.845 37.953 152.968C38.2943 151.005 38.465 148.531 38.465 145.544V85.896C38.465 82.6533 38.2517 80.0933 37.825 78.216C37.4837 76.2533 36.801 74.76 35.777 73.736C34.8383 72.712 33.5583 72.072 31.937 71.816C30.3157 71.4747 28.225 71.304 25.665 71.304V66.44H64.577V71.304C62.017 71.304 59.9263 71.4747 58.305 71.816C56.6837 72.1573 55.361 72.8827 54.337 73.992C53.3983 75.1013 52.7583 76.68 52.417 78.728C52.0757 80.6907 51.905 83.3787 51.905 86.792V118.408L83.905 79.88C85.6117 77.7467 86.465 76.0827 86.465 74.888C86.465 72.4987 84.033 71.304 79.169 71.304V66.44H110.017V71.176C108.31 71.176 106.817 71.304 105.537 71.56C104.257 71.7307 102.977 72.1573 101.697 72.84C100.502 73.5227 99.2223 74.504 97.857 75.784C96.4917 77.064 94.913 78.728 93.121 80.776L69.057 108.552L106.433 153.48C108.566 155.955 110.572 157.704 112.449 158.728C114.326 159.667 116.844 160.136 120.001 160.136V165H80.705V160.136C84.033 160.136 86.4223 159.88 87.873 159.368C89.3237 158.771 90.049 157.875 90.049 156.68C90.049 155.997 89.7077 155.016 89.025 153.736C88.3423 152.456 87.233 150.877 85.697 149L60.737 118.28L51.905 128.52V144.648Z" fill="black"/>
<path d="M681.095 895.352C681.095 892.109 680.924 889.464 680.583 887.416C680.242 885.368 679.559 883.789 678.535 882.68C677.511 881.571 676.103 880.803 674.311 880.376C672.519 880.035 670.13 879.864 667.143 879.864V875H708.615V879.864C705.628 879.864 703.239 880.035 701.447 880.376C699.57 880.803 698.119 881.528 697.095 882.552C696.071 883.661 695.388 885.155 695.047 887.032C694.706 888.995 694.535 891.469 694.535 894.456V954.104C694.535 957.347 694.748 959.907 695.175 961.784C695.516 963.747 696.199 965.24 697.223 966.264C698.162 967.288 699.442 967.928 701.063 968.184C702.684 968.525 704.775 968.696 707.335 968.696V973.56H668.423V968.696C670.983 968.696 673.074 968.525 674.695 968.184C676.316 967.843 677.639 967.117 678.663 966.008C679.602 964.899 680.242 963.32 680.583 961.272C680.924 959.309 681.095 956.621 681.095 953.208V921.592L649.095 960.12C647.388 962.253 646.535 963.917 646.535 965.112C646.535 967.501 648.967 968.696 653.831 968.696V973.56H622.983V968.824C624.69 968.824 626.183 968.696 627.463 968.44C628.743 968.269 630.023 967.843 631.303 967.16C632.498 966.477 633.778 965.496 635.143 964.216C636.508 962.936 638.087 961.272 639.879 959.224L663.943 931.448L626.567 886.52C624.434 884.045 622.428 882.296 620.551 881.272C618.674 880.333 616.156 879.864 612.999 879.864V875H652.295V879.864C648.967 879.864 646.578 880.12 645.127 880.632C643.676 881.229 642.951 882.125 642.951 883.32C642.951 884.003 643.292 884.984 643.975 886.264C644.658 887.544 645.767 889.123 647.303 891L672.263 921.72L681.095 911.48V895.352Z" fill="black"/>
<path d="M406.797 624.083L412.241 638.437L416.749 666.987L424.174 659.562L427.444 655.054L431.333 649.751L435.222 644.447L439.112 637.73L441.233 632.073L441.94 627.83L441.586 623.234L438.404 620.052L432.748 618.638H427.798L422.141 619.345L406.797 624.083Z" fill="#A6E1E7"/>
<path d="M312.539 885.217L319.257 884.864L323.5 882.035L326.682 878.146L328.449 870.722L329.51 861.176L329.864 853.044L329.51 847.034L328.803 842.084L329.51 839.255L331.631 838.548L348.955 838.195L363.451 835.72L377.24 832.538L392.089 828.295L406.231 822.638L415.777 818.749L426.03 813.446L448.657 799.304L469.517 782.687L480.831 771.373L493.559 758.645L499.923 751.574L503.812 746.978L506.287 744.503L510.529 745.21L516.186 748.039L523.964 750.16L532.45 751.574L542.703 751.928L551.895 750.513L560.734 747.332L568.866 743.442L576.29 738.139L581.947 732.482L587.604 726.825L591.493 722.229L596.089 716.219L597.857 713.037L599.271 709.501L596.796 709.855L592.554 711.269H589.018L585.129 709.501L580.886 705.966L573.462 697.834L567.451 691.117L562.502 687.581L556.138 684.753L548.713 684.399L540.581 685.46L532.096 690.409L523.964 696.42L528.561 688.995L531.743 681.571L532.096 675.56L531.035 670.257L529.621 666.014L526.793 661.772L521.843 657.529L517.247 655.054L512.651 652.579L507.701 651.165L502.044 649.044L498.155 646.569L494.619 643.74L491.084 640.205L489.67 635.255L481.892 643.74L475.174 651.872L469.871 662.125L465.982 673.085L465.275 684.399L465.982 694.299L467.749 704.552L471.285 715.158L463.86 716.219L456.436 715.865L449.011 714.805L441.233 712.683L436.637 710.208L432.394 707.38L428.151 703.137L424.616 698.188L421.08 688.288L418.605 678.742L416.749 666.987L412.241 638.437L406.797 624.083L404.11 617.577L398.453 608.385L392.089 599.9L385.018 592.122L377.947 585.051L370.169 578.687L360.976 572.323L352.137 568.434L342.591 564.544L333.046 561.362L323.146 559.241L313.6 558.18L302.994 557.473L293.448 557.827L284.255 558.534L273.295 560.302L261.981 562.423L250.314 565.605L232.99 572.323L218.141 579.394L225.212 590.707L228.04 595.657L229.454 601.314V604.142L228.747 606.971L227.333 610.506L224.858 614.395L222.03 617.931L218.848 620.406L215.666 622.174L212.484 622.527L208.595 622.174L204.706 621.113L201.17 618.285L199.049 616.163L197.281 613.688L195.513 610.506L191.418 599.157L181.371 611.213L171.472 625.356L164.401 638.791L159.097 652.579L155.208 667.075L153.44 682.985L154.148 699.248L156.269 715.512L160.865 730.007L165.461 740.968L170.765 752.635L178.189 765.716L184.907 775.262L192.685 784.455L204.706 796.475L215.312 804.961L226.272 812.385L237.586 818.749L248.9 822.992L255.264 825.113L260.214 828.649L263.042 832.184L266.578 839.963L271.881 849.508L278.598 859.761L285.669 868.247L291.68 874.257L299.104 880.268L305.822 883.45L312.539 885.217Z" fill="#A6E1E7"/>
<path d="M229.454 601.314L228.04 595.657L225.212 590.707L218.141 579.394L172.532 509.037L167.936 503.733L162.986 500.198L159.451 501.612L158.39 506.208L161.219 516.815L191.418 599.157L195.513 610.506L197.281 613.688L199.049 616.163L201.17 618.285L204.706 621.113L208.595 622.174L212.484 622.527L215.666 622.174L218.848 620.406L222.03 617.931L224.858 614.395L227.333 610.506L228.747 606.971L229.454 604.142V601.314Z" fill="#E2F8F0"/>
<path d="M191.418 599.157L195.513 610.506L197.281 613.688L199.049 616.163L201.17 618.285L204.706 621.113L208.595 622.174L212.484 622.527L215.666 622.174L218.848 620.406L222.03 617.931L224.858 614.395L227.333 610.506L228.747 606.971L229.454 604.142V601.314L228.04 595.657L225.212 590.707L218.141 579.394M191.418 599.157L181.371 611.213L171.472 625.356L164.401 638.791L159.097 652.579L155.208 667.075L153.44 682.985L154.148 699.248L156.269 715.512L160.865 730.007L165.461 740.968L170.765 752.635L178.189 765.716L184.907 775.262L192.685 784.455L204.706 796.475L215.312 804.961L226.272 812.385L237.586 818.749L248.9 822.992L255.264 825.113L260.214 828.649L263.042 832.184L266.578 839.963L271.881 849.508L278.598 859.761L285.669 868.247L291.68 874.257L299.104 880.268L305.822 883.45L312.539 885.217L319.257 884.864L323.5 882.035L326.682 878.146L328.449 870.722L329.51 861.176L329.864 853.044L329.51 847.034L328.803 842.084L329.51 839.255L331.631 838.548L348.955 838.195L363.451 835.72L377.24 832.538L392.089 828.295L406.231 822.638L415.777 818.749L426.03 813.446L448.657 799.304L469.517 782.687L480.831 771.373L493.559 758.645L499.923 751.574L503.812 746.978L506.287 744.503L510.529 745.21L516.186 748.039L523.964 750.16L532.45 751.574L542.703 751.928L551.895 750.513L560.734 747.332L568.866 743.442L576.29 738.139L581.947 732.482L587.604 726.825L591.493 722.229L596.089 716.219L597.857 713.037L599.271 709.501L596.796 709.855L592.554 711.269H589.018L585.129 709.501L580.886 705.966L573.462 697.834L567.451 691.117L562.502 687.581L556.138 684.753L548.713 684.399L540.581 685.46L532.096 690.409L523.964 696.42L528.561 688.995L531.743 681.571L532.096 675.56L531.035 670.257L529.621 666.014L526.793 661.772L521.843 657.529L517.247 655.054L512.651 652.579L507.701 651.165L502.044 649.044L498.155 646.569L494.619 643.74L491.084 640.205L489.67 635.255L481.892 643.74L475.174 651.872L469.871 662.125L465.982 673.085L465.275 684.399L465.982 694.299L467.749 704.552L471.285 715.158L463.86 716.219L456.436 715.865L449.011 714.805L441.233 712.683L436.637 710.208L432.394 707.38L428.151 703.137L424.616 698.188L421.08 688.288L418.605 678.742L416.749 666.987M191.418 599.157L161.219 516.815L158.39 506.208L159.451 501.612L162.986 500.198L167.936 503.733L172.532 509.037L218.141 579.394M218.141 579.394L232.99 572.323L250.314 565.605L261.981 562.423L273.295 560.302L284.255 558.534L293.448 557.827L302.994 557.473L313.6 558.18L323.146 559.241L333.046 561.362L342.591 564.544L352.137 568.434L360.976 572.323L370.169 578.687L377.947 585.051L385.018 592.122L392.089 599.9L398.453 608.385L404.11 617.577L406.797 624.083M406.797 624.083L412.241 638.437L416.749 666.987M406.797 624.083L422.141 619.345L427.798 618.638H432.748L438.404 620.052L441.586 623.234L441.94 627.83L441.233 632.073L439.112 637.73L435.222 644.447L431.333 649.751L427.444 655.054L424.174 659.562L416.749 666.987" stroke="black" stroke-width="4"/>
<path d="M326.303 409.017L320.858 394.663L316.35 366.113L308.926 373.538L305.655 378.046L301.766 383.349L297.877 388.652L293.988 395.37L291.867 401.026L291.16 405.269L291.513 409.865L294.695 413.047L300.352 414.462H305.302L310.959 413.754L326.303 409.017Z" fill="#A6E1E7"/>
<path d="M420.56 147.882L413.843 148.236L409.6 151.064L406.418 154.953L404.65 162.378L403.59 171.924L403.236 180.056L403.59 186.066L404.297 191.016L403.59 193.844L401.468 194.551L384.144 194.905L369.648 197.38L355.86 200.562L341.011 204.804L326.869 210.461L317.323 214.35L307.07 219.654L284.442 233.796L263.582 250.413L252.269 261.726L239.541 274.454L233.177 281.525L229.288 286.122L226.813 288.597L222.57 287.889L216.913 285.061L209.135 282.94L200.65 281.525L190.397 281.172L181.205 282.586L172.366 285.768L164.234 289.657L156.809 294.96L151.152 300.617L145.496 306.274L141.607 310.87L137.01 316.881L135.243 320.063L133.828 323.598L136.303 323.245L140.546 321.831H144.081L147.971 323.598L152.213 327.134L159.638 335.266L165.648 341.983L170.598 345.519L176.962 348.347L184.387 348.701L192.518 347.64L201.004 342.69L209.135 336.68L204.539 344.104L201.357 351.529L201.004 357.539L202.064 362.843L203.478 367.085L206.307 371.328L211.257 375.571L215.853 378.046L220.449 380.52L225.399 381.935L231.056 384.056L234.945 386.531L238.48 389.359L242.016 392.895L243.43 397.845L251.208 389.359L257.926 381.228L263.229 370.974L267.118 360.014L267.825 348.701L267.118 338.801L265.35 328.548L261.815 317.941L269.239 316.881L276.664 317.234L284.089 318.295L291.867 320.416L296.463 322.891L300.706 325.72L304.948 329.962L308.484 334.912L312.019 344.812L314.494 354.357L316.35 366.113L320.858 394.663L326.303 409.017L328.99 415.522L334.647 424.715L341.011 433.2L348.082 440.978L355.153 448.049L362.931 454.413L372.123 460.777L380.962 464.666L390.508 468.555L400.054 471.737L409.954 473.858L419.5 474.919L430.106 475.626L439.652 475.273L448.844 474.566L459.805 472.798L471.118 470.677L482.786 467.495L500.11 460.777L514.959 453.706L507.888 442.392L505.059 437.442L503.645 431.786V428.957L504.352 426.129L505.767 422.593L508.241 418.704L511.07 415.169L514.252 412.694L517.434 410.926L520.616 410.572L524.505 410.926L528.394 411.987L531.929 414.815L534.051 416.936L535.819 419.411L537.586 422.593L541.681 433.943L551.728 421.886L561.628 407.744L568.699 394.309L574.002 380.52L577.891 366.025L579.659 350.115L578.952 333.851L576.831 317.588L572.235 303.092L567.638 292.132L562.335 280.465L554.91 267.383L548.193 257.837L540.415 248.645L528.394 236.624L517.787 228.139L506.827 220.714L495.513 214.35L484.2 210.108L477.836 207.986L472.886 204.451L470.058 200.915L466.522 193.137L461.219 183.591L454.501 173.338L447.43 164.853L441.42 158.842L433.995 152.832L427.278 149.65L420.56 147.882Z" fill="#A6E1E7"/>
<path d="M503.645 431.786L505.059 437.442L507.888 442.392L514.959 453.706L560.567 524.063L565.163 529.366L570.113 532.902L573.649 531.488L574.709 526.892L571.881 516.285L541.681 433.943L537.586 422.593L535.819 419.411L534.051 416.936L531.929 414.815L528.394 411.987L524.505 410.926L520.616 410.572L517.434 410.926L514.252 412.694L511.07 415.169L508.241 418.704L505.767 422.593L504.352 426.129L503.645 428.957V431.786Z" fill="#E2F8F0"/>
<path d="M541.681 433.943L537.586 422.593L535.819 419.411L534.051 416.936L531.929 414.815L528.394 411.987L524.505 410.926L520.616 410.572L517.434 410.926L514.252 412.694L511.07 415.169L508.241 418.704L505.767 422.593L504.352 426.129L503.645 428.957V431.786L505.059 437.442L507.888 442.392L514.959 453.706M541.681 433.943L551.728 421.886L561.628 407.744L568.699 394.309L574.002 380.52L577.891 366.025L579.659 350.115L578.952 333.851L576.831 317.588L572.235 303.092L567.638 292.132L562.335 280.465L554.91 267.383L548.193 257.837L540.415 248.645L528.394 236.624L517.787 228.139L506.827 220.714L495.513 214.35L484.2 210.108L477.836 207.986L472.886 204.451L470.058 200.915L466.522 193.137L461.219 183.591L454.501 173.338L447.43 164.853L441.42 158.842L433.995 152.832L427.278 149.65L420.56 147.882L413.843 148.236L409.6 151.064L406.418 154.953L404.65 162.378L403.59 171.924L403.236 180.056L403.59 186.066L404.297 191.016L403.59 193.844L401.468 194.551L384.144 194.905L369.648 197.38L355.86 200.562L341.011 204.804L326.869 210.461L317.323 214.35L307.07 219.654L284.442 233.796L263.582 250.413L252.269 261.726L239.541 274.454L233.177 281.525L229.288 286.122L226.813 288.597L222.57 287.889L216.913 285.061L209.135 282.94L200.65 281.525L190.397 281.172L181.205 282.586L172.366 285.768L164.234 289.657L156.809 294.96L151.152 300.617L145.496 306.274L141.607 310.87L137.01 316.881L135.243 320.063L133.828 323.598L136.303 323.245L140.546 321.831H144.081L147.971 323.598L152.213 327.134L159.638 335.266L165.648 341.983L170.598 345.519L176.962 348.347L184.387 348.701L192.518 347.64L201.004 342.69L209.135 336.68L204.539 344.104L201.357 351.529L201.004 357.539L202.064 362.843L203.478 367.085L206.307 371.328L211.257 375.571L215.853 378.046L220.449 380.52L225.399 381.935L231.056 384.056L234.945 386.531L238.48 389.359L242.016 392.895L243.43 397.845L251.208 389.359L257.926 381.228L263.229 370.974L267.118 360.014L267.825 348.701L267.118 338.801L265.35 328.548L261.815 317.941L269.239 316.881L276.664 317.234L284.089 318.295L291.867 320.416L296.463 322.891L300.706 325.72L304.948 329.962L308.484 334.912L312.019 344.812L314.494 354.357L316.35 366.113M541.681 433.943L571.881 516.285L574.709 526.892L573.649 531.488L570.113 532.902L565.163 529.366L560.567 524.063L514.959 453.706M514.959 453.706L500.11 460.777L482.786 467.495L471.118 470.677L459.805 472.798L448.844 474.566L439.652 475.273L430.106 475.626L419.5 474.919L409.954 473.858L400.054 471.737L390.508 468.555L380.962 464.666L372.123 460.777L362.931 454.413L355.153 448.049L348.082 440.978L341.011 433.2L334.647 424.715L328.99 415.522L326.303 409.017M326.303 409.017L320.858 394.663L316.35 366.113M326.303 409.017L310.959 413.754L305.302 414.462H300.352L294.695 413.047L291.513 409.865L291.16 405.269L291.867 401.026L293.988 395.37L297.877 388.652L301.766 383.349L305.655 378.046L308.926 373.538L316.35 366.113" stroke="black" stroke-width="4"/>
<rect x="133" y="122" width="467" height="796" rx="5" stroke="black" stroke-width="4"/>
<path d="M211.328 143.06L206.796 141.412L201.852 141L196.908 141.412L191.964 143.06L187.02 146.356L182.488 151.3L180.016 155.42L177.956 162.012V166.956L179.192 171.9L181.664 176.02L184.136 179.316L184.96 181.376L184.136 182.612L181.664 182.2L177.956 181.376H171.776L166.832 182.612L162.712 185.084L159.828 187.556L157.356 190.028L154.884 193.324L153.236 196.62L152.412 200.74L152 205.684L152.412 210.628L154.06 216.396L159.416 222.988L164.36 226.284L169.716 228.344H176.72L182.9 227.52L188.668 224.224L195.26 218.868L196.496 219.692L195.856 223.812L191.14 229.992L184.96 234.524L180.428 236.996L177.956 239.056V240.704L181.664 243.176L202.264 244L221.628 243.176L224.924 240.704V239.056L222.864 236.996L218.332 234.524L211.328 229.992L207.208 223.812L206.384 219.692L208.032 218.868L214.624 224.224L221.628 227.52L226.984 228.344H233.988L239.344 226.284L244.288 222.988L249.644 216.396L251.292 210.628L251.704 205.684L251.292 200.74L250.056 196.62L248.408 193.324L246.348 190.028L243.464 187.556L240.168 185.084L236.048 182.612L231.104 181.376H226.16L222.04 182.2L219.568 182.612L218.332 181.376L219.568 179.316L222.04 176.02L224.1 171.9L225.336 166.956V162.012L223.688 155.42L221.216 151.3L216.272 146.356L211.328 143.06Z" fill="black" stroke="black"/>
<path d="M74.7025 183.24L71.9752 182.248L69 182L66.0248 182.248L63.0496 183.24L60.0744 185.224L57.3471 188.2L55.8595 190.68L54.6198 194.648V197.624L55.3636 200.6L56.8512 203.08L58.3388 205.064L58.8347 206.304L58.3388 207.048L56.8512 206.8L54.6198 206.304H50.9008L47.9256 207.048L45.4463 208.536L43.7107 210.024L42.2231 211.512L40.7355 213.496L39.7438 215.48L39.2479 217.96L39 220.936L39.2479 223.912L40.2397 227.384L43.4628 231.352L46.438 233.336L49.6612 234.576H53.876L57.595 234.08L61.0661 232.096L65.0331 228.872L65.7769 229.368L65.3919 231.848L62.5537 235.568L58.8347 238.296L56.1074 239.784L54.6198 241.024V242.016L56.8512 243.504L69.2479 244L80.9008 243.504L82.8843 242.016V241.024L81.6446 239.784L78.9174 238.296L74.7025 235.568L72.2231 231.848L71.7273 229.368L72.719 228.872L76.686 232.096L80.9008 234.08L84.124 234.576H88.3388L91.562 233.336L94.5372 231.352L97.7603 227.384L98.7521 223.912L99 220.936L98.7521 217.96L98.0083 215.48L97.0165 213.496L95.7769 211.512L94.0413 210.024L92.0578 208.536L89.5785 207.048L86.6033 206.304H83.6281L81.1488 206.8L79.6612 207.048L78.9174 206.304L79.6612 205.064L81.1488 203.08L82.3884 200.6L83.1322 197.624V194.648L82.1405 190.68L80.6529 188.2L77.6777 185.224L74.7025 183.24Z" fill="black" stroke="black"/>
<path d="M659.298 856.76L662.025 857.752L665 858L667.975 857.752L670.95 856.76L673.926 854.776L676.653 851.8L678.14 849.32L679.38 845.352V842.376L678.636 839.4L677.149 836.92L675.661 834.936L675.165 833.696L675.661 832.952L677.149 833.2L679.38 833.696H683.099L686.074 832.952L688.554 831.464L690.289 829.976L691.777 828.488L693.264 826.504L694.256 824.52L694.752 822.04L695 819.064L694.752 816.088L693.76 812.616L690.537 808.648L687.562 806.664L684.339 805.424H680.124L676.405 805.92L672.934 807.904L668.967 811.128L668.223 810.632L668.608 808.152L671.446 804.432L675.165 801.704L677.893 800.216L679.38 798.976V797.984L677.149 796.496L664.752 796L653.099 796.496L651.116 797.984V798.976L652.355 800.216L655.083 801.704L659.298 804.432L661.777 808.152L662.273 810.632L661.281 811.128L657.314 807.904L653.099 805.92L649.876 805.424H645.661L642.438 806.664L639.463 808.648L636.24 812.616L635.248 816.088L635 819.064L635.248 822.04L635.992 824.52L636.983 826.504L638.223 828.488L639.959 829.976L641.942 831.464L644.421 832.952L647.397 833.696H650.372L652.851 833.2L654.339 832.952L655.083 833.696L654.339 834.936L652.851 836.92L651.612 839.4L650.868 842.376V845.352L651.86 849.32L653.347 851.8L656.322 854.776L659.298 856.76Z" fill="black" stroke="black"/>
<path d="M521.672 896.94L526.204 898.588L531.148 899L536.092 898.588L541.036 896.94L545.98 893.644L550.512 888.7L552.984 884.58L555.044 877.988V873.044L553.808 868.1L551.336 863.98L548.864 860.684L548.04 858.624L548.864 857.388L551.336 857.8L555.044 858.624H561.224L566.168 857.388L570.288 854.916L573.172 852.444L575.644 849.972L578.116 846.676L579.764 843.38L580.588 839.26L581 834.316L580.588 829.372L578.94 823.604L573.584 817.012L568.64 813.716L563.284 811.656H556.28L550.1 812.48L544.332 815.776L537.74 821.132L536.504 820.308L537.144 816.188L541.86 810.008L548.04 805.476L552.572 803.004L555.044 800.944V799.296L551.336 796.824L530.736 796L511.372 796.824L508.076 799.296V800.944L510.136 803.004L514.668 805.476L521.672 810.008L525.792 816.188L526.616 820.308L524.968 821.132L518.376 815.776L511.372 812.48L506.016 811.656H499.012L493.656 813.716L488.712 817.012L483.356 823.604L481.708 829.372L481.296 834.316L481.708 839.26L482.944 843.38L484.592 846.676L486.652 849.972L489.536 852.444L492.832 854.916L496.952 857.388L501.896 858.624H506.84L510.96 857.8L513.432 857.388L514.668 858.624L513.432 860.684L510.96 863.98L508.9 868.1L507.664 873.044V877.988L509.312 884.58L511.784 888.7L516.728 893.644L521.672 896.94Z" fill="black" stroke="black"/>
</svg>
